<?xml version="1.0" encoding="UTF-8"?><svg id="Layer_1" xmlns="http://www.w3.org/2000/svg" width="20.3125" height="24.0627" viewBox="0 0 20.3125 24.0627"><defs><style>.cls-1{fill-rule:evenodd;}</style></defs><path class="cls-1" d="M7.8178,5.0002c.0803-1.2216,1.0966-2.1877,2.3386-2.1877s2.2583,.966,2.3386,2.1877H7.8178Zm-2.8176,2.8125v1.0936c0,.7767,.6296,1.4063,1.4062,1.4063s1.4063-.6296,1.4063-1.4063v-1.0936h4.6875v1.0936c0,.7767,.6296,1.4063,1.4062,1.4063s1.4063-.6296,1.4063-1.4063v-1.0936h1.0413l1.0337,13.4375H2.9248L3.9585,7.8126h1.0417Zm.0023-2.8125c.0825-2.7755,2.3584-5.0002,5.1539-5.0002s5.0714,2.2246,5.1539,5.0002h2.346c.7348,0,1.3457,.5657,1.4021,1.2984l1.25,16.25c.03,.3905-.1042,.7759-.3703,1.0633-.2662,.2874-.6401,.4508-1.0318,.4508H1.4063c-.3917,0-.7657-.1634-1.0318-.4508-.2661-.2874-.4004-.6728-.3703-1.0633L1.2541,6.2985c.0564-.7326,.6673-1.2984,1.4021-1.2984h2.3462Z"/></svg>