<?xml version="1.0" encoding="UTF-8"?><svg id="Layer_2" xmlns="http://www.w3.org/2000/svg" width="115.37" height="63.59" viewBox="0 0 115.37 63.59"><defs><style>.cls-1{fill:#231c16;}</style></defs><g id="Layer_1-2"><g><path class="cls-1" d="M29.62,34.61c-1.19,0-2.29,.76-2.29,2.14,0,.77,.45,1.35,1.01,1.78l3.47,2.72c1.03,.81,1.55,1.64,1.55,3.03,0,1.89-1.26,3.24-3.03,3.24-1.53,0-2.61-1.08-2.99-1.08-.32,0-.31,.65-.29,.85h-.18v-3.26h.18v.02c0,.79,.4,1.69,.95,2.23,.63,.61,1.26,1.06,2.36,1.06,1.39,0,2.36-1.01,2.36-2.5,0-1.17-.59-1.73-1.42-2.39l-3.29-2.52c-.77-.59-1.22-1.44-1.22-2.47,0-1.84,1.21-3.04,2.9-3.04,1.15,0,2.25,.79,2.58,.79,.22,0,.31-.32,.29-.52h.16v2.95h-.16v-.02c-.02-1.67-1.22-3.01-2.93-3.01Z"/><path class="cls-1" d="M38.37,43.74c-.36,2.14-.36,3.78-1.91,3.78-.97,0-1.57-.68-1.57-1.85v-8.08h-.97v-.18h.02c1.13,0,1.89-.76,1.89-1.89v-.52h.22v2.41h2.09v.18h-2.09v7.85c.02,1.19,.29,1.8,.81,1.8,.86,.02,1.08-1.71,1.31-3.49h.2Z"/><path class="cls-1" d="M45.77,38.99v6.45c0,1.44,.2,1.84,.58,1.8,.49-.05,.65-.86,.85-2.54l.18,.02c-.23,2-.36,2.81-1.3,2.81s-1.46-.63-1.46-1.84v-.63c-.34,1.3-1.22,2.45-2.75,2.45-1.64,0-2.61-1.04-2.61-2.59,0-3.42,5.33-3.57,5.33-6.14,0-.18-.05-.36-.11-.54-.2-.58-.63-.85-1.26-.88-1.55-.11-2.75,1.01-3.29,3.03v.09l-.18-.07,.41-3.24h.2l-.09,.61c.65-.4,1.76-.68,2.95-.61,1.19,.07,2.56,.67,2.56,1.84Zm-5.24,5.92c0,.99,.43,2.27,1.66,2.27,1.66,0,2.41-2.03,2.43-3.35v-4.34c-.68,1.93-4.09,1.82-4.09,5.42Z"/><path class="cls-1" d="M51.62,47.11v.18h-4.39v-.18h.72c.54,0,.9-.36,.9-.9v-8.28c0-.23-.14-.36-.38-.32l-1.24,.2v-.18l2.4-.4c.23-.04,.38,.09,.38,.32v2.3c.41-1.66,1.24-2.75,2.38-2.72,1.01,.04,1.6,.68,1.6,1.87l-1.15,.23c0-1.31-.22-1.84-.79-1.84-.88,0-1.82,1.55-2.03,3.4v5.4c0,.54,.36,.9,.88,.9h.74Z"/><path class="cls-1" d="M59.03,34.68v-.18l2.41-.4c.22-.04,.36,.09,.36,.31v11.02c.02,1.44,.2,1.84,.59,1.8,.47-.05,.63-.86,.83-2.54l.2,.02c-.25,2-.38,2.81-1.31,2.81-.77,0-1.24-.41-1.4-1.22-.31,.68-1.39,1.22-2.49,1.22-2.34,0-3.98-2.12-3.98-5.19s1.67-5.19,4.12-5.19c.92,0,1.84,.38,2.29,.9v-3.26c0-.22-.14-.34-.36-.31l-1.26,.2Zm-.4,2.68c-2.07-.05-3.2,1.71-3.2,4.95s1.04,5.01,2.77,4.99c1.37-.02,2.45-1.28,2.45-2.95v-5.71c-.27-.7-1.13-1.24-2.02-1.28Z"/><path class="cls-1" d="M71.08,46.21c0,.54,.36,.9,.9,.9h.72v.18h-1.87c-.54,0-.9-.36-.9-.9v-1.67c-.52,1.71-1.78,2.79-3.26,2.79-1.21,0-1.8-.68-1.8-1.85v-7.72c0-.23-.14-.36-.36-.32l-1.26,.2v-.18l2.41-.4c.22-.04,.36,.09,.36,.32v7.87c0,1.3,.23,1.82,1.03,1.82,1.28,.02,2.65-1.53,2.88-3.38v-5.92c0-.23-.14-.36-.36-.32l-1.26,.2v-.18l2.41-.4c.22-.04,.36,.09,.36,.32v8.66Z"/><path class="cls-1" d="M75.86,37.33c-1.13,0-2.16,.58-2.16,1.67,0,.59,.47,1.04,.99,1.39l3.19,2.09c1.08,.7,1.53,1.35,1.53,2.48,0,1.5-1.21,2.56-2.86,2.56-1.46,0-2.48-.86-2.83-.86-.31,0-.29,.7-.29,.86h-.16v-3.13h.16v.29c.04,1.64,1.62,2.67,3.13,2.67,1.31,0,2.25-.76,2.25-1.94,0-.92-.61-1.31-1.4-1.84l-3.04-1.94c-.76-.49-1.17-1.22-1.17-2.07,0-1.44,1.12-2.4,2.74-2.4,1.19,0,2.11,.7,2.43,.63,.25-.05,.25-.47,.25-.63h.16v2.92h-.16v-.25c0-1.66-1.21-2.48-2.75-2.48Z"/><path class="cls-1" d="M84.57,43.74c-.36,2.14-.36,3.78-1.91,3.78-.97,0-1.57-.68-1.57-1.85v-8.08h-.97v-.18h.02c1.13,0,1.89-.76,1.89-1.89v-.52h.22v2.41h2.09v.18h-2.09v7.85c.02,1.19,.29,1.8,.81,1.8,.86,.02,1.08-1.71,1.31-3.49h.2Z"/><path class="cls-1" d="M95.34,47.11c1.08,0,1.91-.72,2.05-1.78l.11-.92h.18l-.36,2.88h-6.59v-.18h.72c.54,0,.9-.36,.9-.9v-10.44c0-.54-.36-.9-.9-.9h-.72v-.18h4.5v.18h-.72c-.54,0-.9,.36-.9,.9v10.98c0,.22,.14,.36,.36,.36h1.37Z"/><path class="cls-1" d="M104.77,38.99v6.45c0,1.44,.2,1.84,.58,1.8,.49-.05,.65-.86,.85-2.54l.18,.02c-.23,2-.36,2.81-1.3,2.81s-1.46-.63-1.46-1.84v-.63c-.34,1.3-1.22,2.45-2.75,2.45-1.64,0-2.61-1.04-2.61-2.59,0-3.42,5.33-3.57,5.33-6.14,0-.18-.05-.36-.11-.54-.2-.58-.63-.85-1.26-.88-1.55-.11-2.75,1.01-3.29,3.03v.09l-.18-.07,.41-3.24h.2l-.09,.61c.65-.4,1.76-.68,2.95-.61,1.19,.07,2.56,.67,2.56,1.84Zm-5.24,5.92c0,.99,.43,2.27,1.66,2.27,1.66,0,2.41-2.03,2.43-3.35v-4.34c-.68,1.93-4.09,1.82-4.09,5.42Z"/><path class="cls-1" d="M106.14,34.68v-.18l2.41-.4c.22-.04,.36,.09,.36,.31v3.69c.41-.56,1.39-.96,2.32-.96,2.47,0,4.14,2.11,4.14,5.19s-1.64,5.19-3.98,5.19c-1.76,0-2.45-1.19-2.99-1.19-.43,0-.45,.68-.45,1.08h-.2v-12.62c0-.22-.14-.34-.36-.31l-1.26,.2Zm2.77,9.74c0,1.69,1.13,2.86,2.48,2.88,1.73,.02,2.77-1.85,2.77-4.99s-1.12-5.01-3.19-4.95c-.94,.04-1.87,.65-2.07,1.42v5.64Z"/></g><path class="cls-1" d="M73.56,50.43c-15.99,8.95-34.64,14.79-53.1,12.75C3.71,61.26-5.84,49.81,3.93,34.06,16.23,15.37,41.34,4.18,62.87,.8c11.13-1.41,24.15-1.74,33.36,5.64,5.74,4.75,6.26,12.66,3.16,19.07,0,0,0,0,0,0,0,0-.01,0-.01,0,0,0,0,0,0,0,2.97-6.39,2.41-14.22-3.34-18.85C86.79-.5,74.01-.15,62.94,1.3,41.49,4.77,16.9,15.95,4.52,34.42-.76,42.49-1.33,52.72,7.62,58.35c18.39,10.78,48.53,1.68,65.94-7.91h0Z"/><path class="cls-1" d="M96.7,25.7s0,0,0,0c0,0,0,0,0,0-.1,2.03-1.78,3.54-3.79,3.61,1.97,.12,3.7,1.57,3.79,3.63,0,0,0,0,0,0,0,0,0,0,0,0,.1-2.03,1.78-3.54,3.79-3.61-1.97-.12-3.7-1.57-3.79-3.63Zm0,6.43c-.2-1.46-1.49-2.61-2.95-2.81,1.43-.17,2.75-1.36,2.95-2.81,.2,1.46,1.49,2.61,2.95,2.81-1.43,.17-2.75,1.36-2.95,2.81Z"/></g></svg>